<svg width="28" height="28" viewBox="0 0 28 28" fill="none" xmlns="http://www.w3.org/2000/svg">
<g clip-path="url(#clip0_11_2137)">
<path fill-rule="evenodd" clip-rule="evenodd" d="M14 15.6496L20.5998 22.2495C20.8198 22.462 21.1145 22.5796 21.4204 22.5769C21.7263 22.5743 22.0189 22.4516 22.2352 22.2353C22.4516 22.0189 22.5742 21.7263 22.5769 21.4204C22.5796 21.1145 22.462 20.8198 22.2495 20.5998L15.6496 14L22.2495 7.40014C22.462 7.1801 22.5796 6.8854 22.5769 6.5795C22.5742 6.27361 22.4516 5.98099 22.2352 5.76468C22.0189 5.54837 21.7263 5.42568 21.4204 5.42302C21.1145 5.42036 20.8198 5.53795 20.5998 5.75047L14 12.3503L7.40012 5.75047C7.1791 5.54321 6.8861 5.43006 6.58314 5.43498C6.28018 5.4399 5.99101 5.5625 5.77683 5.77683C5.56265 5.99116 5.44026 6.28041 5.43556 6.58338C5.43085 6.88635 5.5442 7.17926 5.75162 7.40014L12.3503 14L5.75046 20.5998C5.63903 20.7074 5.55015 20.8362 5.48901 20.9785C5.42786 21.1208 5.39568 21.2739 5.39433 21.4288C5.39299 21.5837 5.4225 21.7374 5.48116 21.8807C5.53983 22.0241 5.62645 22.1544 5.736 22.2639C5.84554 22.3735 5.9758 22.4601 6.11918 22.5188C6.26256 22.5774 6.41618 22.6069 6.57109 22.6056C6.726 22.6043 6.87909 22.5721 7.02143 22.5109C7.16377 22.4498 7.2925 22.3609 7.40012 22.2495L14 15.6496Z" fill="#D9D9D9"/>
</g>
<defs>
<clipPath id="clip0_11_2137">
<rect width="28" height="28" fill="white"/>
</clipPath>
</defs>
</svg>
